:SAMPLES-PER-SECOND 30
:FULLY-SPECIFIED
:DEGREES
481
root  -36.1267 39.7556 -25.576 -58.2138 -86.2712 63.2565
RightUpLeg  -25.7414 -13.2741 -6.17481
RightLeg  8.60461 -18.8382 5.05967
RightFoot  12.9306 2.14512 -9.53079
RightToes  0.00048216 0.542163 -0.142577
Spine  46.2768 -4.58243 9.86729
Spine1  9.81812 -0.0996051 -1.59877
HEad  -31.1283 -3.13075 -4.739
LeftShoulder1  12.1675 -19.7524 -45.5828
LeftArm  -9.14822 -3.91239 -28.3355
LeftForeArm  17.6399 -3.95468 -6.64881
LeftHand  -0.25398 0.0180481 5.50724
RightShoulder  7.65605 14.542 36.4107
RightArm  15.5019 14.55 26.0068
RightForeArm  -3.51469 7.92674 13.0653
RightHand  -1.84818 4.4805 -21.844
LeftUpLeg  -10.2092 -0.0964049 -1.33406
LeftLeg  36.8306 13.93 11.3034
LeftFoot  -15.3868 0.0149593 -2.19581
LeftToes  1.06248e-005 4.65855e-005 -8.185e-006
482
root  -35.608 39.614 -25.209 -44.3719 -86.1963 48.4652
RightUpLeg  -25.0844 -13.4519 -6.65818
RightLeg  7.98577 -19.4926 5.27434
RightFoot  14.132 2.17698 -9.17127
RightToes  0.00048216 0.542163 -0.142577
Spine  44.5982 -4.53576 9.54849
Spine1  9.90747 -0.490795 -1.05771
HEad  -31.9035 -2.38799 -4.97608
LeftShoulder1  12.1754 -19.2567 -46.6461
LeftArm  -9.41695 -0.780271 -27.5561
LeftForeArm  17.1054 -5.13521 -6.48497
LeftHand  -0.25398 0.0180481 5.50724
RightShoulder  7.73132 14.2179 37.5782
RightArm  19.5486 8.74503 26.139
RightForeArm  -5.37752 10.2589 12.4263
RightHand  -1.69965 4.12114 -20.8659
LeftUpLeg  -7.68275 0.018393 -0.233938
LeftLeg  37.453 15.3788 12.6487
LeftFoot  -16.0863 0.0332243 -1.51212
LeftToes  1.06248e-005 4.65855e-005 -8.185e-006
483
root  -34.9978 39.425 -24.8312 -29.0883 -85.8303 32.3756
RightUpLeg  -24.6933 -13.51 -7.11224
RightLeg  7.35461 -20.4657 5.50474
RightFoot  15.2667 2.20301 -8.8444
RightToes  0.00048216 0.542163 -0.142577
Spine  43.1213 -4.48338 9.1478
Spine1  9.52479 -0.90779 -0.477083
HEad  -32.639 -1.49451 -4.97754
LeftShoulder1  12.0238 -18.8457 -46.9236
LeftArm  -10.1659 2.10212 -27.5622
LeftForeArm  17.0516 -6.28494 -6.16098
LeftHand  -0.25398 0.0180481 5.50724
RightShoulder  7.78769 13.8948 38.6723
RightArm  23.1141 3.02287 26.2411
RightForeArm  -8.57373 12.6672 11.4857
RightHand  -1.45274 3.25024 -19.627
LeftUpLeg  -6.15564 -0.0494012 1.49168
LeftLeg  39.2308 15.8975 13.8357
LeftFoot  -16.6521 0.0146262 -1.8324
LeftToes  1.06248e-005 4.65855e-005 -8.185e-006
484
root  -34.2817 39.177 -24.4309 -16.4742 -85.184 18.7661
RightUpLeg  -24.3583 -13.5379 -7.59905
RightLeg  6.88158 -21.4879 5.60642
RightFoot  16.4962 2.19768 -8.38516
RightToes  0.00048216 0.542163 -0.142577
Spine  42.063 -4.38256 8.68163
Spine1  8.8139 -1.23543 0.102758
HEad  -33.2132 -0.768329 -4.79529
LeftShoulder1  11.8319 -18.6071 -46.6695
LeftArm  -11.2946 4.74162 -28.042
LeftForeArm  17.4354 -7.61958 -5.7587
LeftHand  -0.25398 0.0180481 5.50724
RightShoulder  7.82454 13.598 39.6215
RightArm  26.2197 -2.37081 26.2963
RightForeArm  -11.8787 14.8632 10.4087
RightHand  -1.13905 2.03082 -17.9227
LeftUpLeg  -5.09636 -0.328651 3.52672
LeftLeg  41.7916 15.3759 14.6029
LeftFoot  -17.1384 0.015455 -1.73003
LeftToes  1.06248e-005 4.65855e-005 -8.185e-006
485
root  -33.48 38.8739 -23.995 -9.73734 -84.4384 10.5904
RightUpLeg  -23.7991 -13.8612 -8.26293
RightLeg  6.645 -22.0762 5.61297
RightFoot  17.9694 2.15357 -7.73953
RightToes  0.00048216 0.542163 -0.142577
Spine  41.2373 -4.17977 8.04663
Spine1  8.40265 -1.40619 0.493294
HEad  -33.5356 -0.327907 -4.6855
LeftShoulder1  11.7582 -18.4316 -46.7538
LeftArm  -12.081 6.53813 -27.8586
LeftForeArm  17.6442 -8.95806 -5.47254
LeftHand  -0.25398 0.0180481 5.50724
RightShoulder  7.81962 13.3432 40.2522
RightArm  28.5303 -7.1797 26.6496
RightForeArm  -14.5252 16.6641 9.3703
RightHand  -0.961284 1.38906 -16.5797
LeftUpLeg  -3.5594 -0.821443 5.32509
LeftLeg  43.3499 14.1244 14.2289
LeftFoot  -17.0992 0.0881559 -0.289623
LeftToes  1.06248e-005 4.65855e-005 -8.185e-006
486
root  -32.6312 38.5573 -23.5044 -7.35828 -83.8383 6.44085
RightUpLeg  -22.8032 -14.3276 -9.15302
RightLeg  6.12196 -22.344 5.71199
RightFoot  19.3962 2.03265 -6.88889
RightToes  0.00048216 0.542163 -0.142577
Spine  40.361 -3.92953 7.28969
Spine1  8.43356 -1.42808 0.427968
HEad  -33.3887 0.0770863 -4.6479
LeftShoulder1  11.7633 -18.1183 -47.4716
LeftArm  -12.1503 7.37648 -26.6537
LeftForeArm  17.7081 -10.2349 -5.31204
LeftHand  -0.25398 0.0180481 5.50724
RightShoulder  7.78642 13.1086 40.6844
RightArm  30.3121 -11.3646 27.3911
RightForeArm  -16.8352 18.1948 8.43853
RightHand  -1.01906 1.73754 -16.6978
LeftUpLeg  -1.02601 -1.91654 6.61652
LeftLeg  42.2735 12.0478 11.8866
LeftFoot  -16.9741 0.0814206 -0.482335
LeftToes  1.06248e-005 4.65855e-005 -8.185e-006
487
root  -31.7257 38.2365 -22.9311 -6.24796 -83.358 3.55405
RightUpLeg  -21.5694 -14.6815 -10.1838
RightLeg  4.93092 -22.733 5.87261
RightFoot  20.5285 1.70968 -5.47948
RightToes  0.00048216 0.542163 -0.142577
Spine  39.3379 -3.74368 6.56774
Spine1  8.52971 -1.42861 0.0139088
HEad  -32.6562 0.629493 -4.53669
LeftShoulder1  11.7001 -17.6577 -48.2597
LeftArm  -11.8552 7.89291 -25.3584
LeftForeArm  17.9954 -11.9088 -5.10663
LeftHand  -0.25398 0.0180481 5.50724
RightShoulder  7.69107 12.8064 40.9534
RightArm  31.4848 -14.9819 28.4134
RightForeArm  -18.7214 19.4438 7.68371
RightHand  -1.27421 2.73887 -18.3096
LeftUpLeg  1.94663 -3.87066 7.27448
LeftLeg  39.1771 9.0701 8.22742
LeftFoot  -18.5584 -0.241809 -5.27586
LeftToes  1.06248e-005 4.65855e-005 -8.185e-006
488
root  -30.7234 37.8816 -22.2717 -6.48178 -82.7865 2.1903
RightUpLeg  -20.3777 -15.0503 -11.4854
RightLeg  3.2779 -23.3789 5.96818
RightFoot  21.5134 1.04062 -3.02376
RightToes  0.00048216 0.542163 -0.142577
Spine  38.1627 -3.57248 5.67264
Spine1  8.59042 -1.55878 -0.270867
HEad  -31.7277 1.11782 -4.51794
LeftShoulder1  11.5656 -17.2051 -48.7547
LeftArm  -11.4379 8.35448 -24.6662
LeftForeArm  18.1578 -14.2861 -4.73733
LeftHand  -0.25398 0.0180481 5.50724
RightShoulder  7.47524 12.396 40.8218
RightArm  30.9826 -17.9881 29.7971
RightForeArm  -19.2696 20.1328 7.23215
RightHand  -1.56092 3.74289 -19.9919
LeftUpLeg  4.16517 -5.78796 6.9956
LeftLeg  36.4807 6.17648 5.23499
LeftFoot  -22.7549 -1.02446 -11.5666
LeftToes  1.06248e-005 4.65855e-005 -8.185e-006
489
root  -29.6485 37.5545 -21.5805 -10.4492 -82.0771 4.67907
RightUpLeg  -18.9249 -15.5668 -13.2795
RightLeg  1.12877 -23.9879 6.1234
RightFoot  21.6807 0.0799511 0.253272
RightToes  0.00048216 0.542163 -0.142577
Spine  36.9104 -3.12592 4.05527
Spine1  9.06028 -1.7813 -0.19092
HEad  -31.2609 1.28333 -4.89037
LeftShoulder1  11.4816 -16.8379 -49.2791
LeftArm  -11.0703 8.12368 -24.1065
LeftForeArm  17.9313 -16.8695 -4.32427
LeftHand  -0.25398 0.0180481 5.50724
RightShoulder  7.21082 11.9752 40.4192
RightArm  27.8397 -20.27 31.4839
RightForeArm  -17.9636 20.1531 7.05463
RightHand  -1.62092 4.01335 -20.1522
LeftUpLeg  4.93388 -6.05216 5.60471
LeftLeg  35.8714 4.79804 4.0806
LeftFoot  -27.5589 -1.71125 -13.2522
LeftToes  1.06248e-005 4.65855e-005 -8.185e-006
490
root  -28.5447 37.354 -20.9038 -16.256 -81.3694 8.95272
RightUpLeg  -16.7323 -15.8224 -15.1533
RightLeg  -1.96582 -24.2468 6.46588
RightFoot  18.9562 -0.793292 3.44452
RightToes  0.00048216 0.542163 -0.142577
Spine  35.729 -2.39378 2.03222
Spine1  10.1444 -1.89365 0.0531112
HEad  -31.2628 1.29481 -5.5222
LeftShoulder1  11.4605 -16.5154 -49.9808
LeftArm  -11.0133 6.81972 -23.2089
LeftForeArm  17.7635 -19.0032 -4.04672
LeftHand  -0.25398 0.0180481 5.50724
RightShoulder  7.06616 11.6758 40.3885
RightArm  22.1796 -21.7849 32.9942
RightForeArm  -15.024 19.7002 6.97933
RightHand  -1.34697 3.11294 -18.4995
LeftUpLeg  4.59219 -4.54261 3.73413
LeftLeg  37.0066 4.92215 4.34754
LeftFoot  -30.3404 -1.55484 -10.3446
LeftToes  1.06248e-005 4.65855e-005 -8.185e-006
491
root  -27.4592 37.2783 -20.2553 -19.9003 -80.8586 11.0138
RightUpLeg  -13.9237 -15.3324 -16.427
RightLeg  -5.97526 -24.0146 6.86272
RightFoot  12.5142 -1.17753 5.99838
RightToes  0.00048216 0.542163 -0.142577
Spine  34.6303 -1.75655 0.594675
Spine1  11.2555 -1.75171 0.0329539
HEad  -30.7615 1.6605 -6.08355
LeftShoulder1  11.3889 -16.2192 -50.4117
LeftArm  -11.34 5.26646 -22.3802
LeftForeArm  18.0132 -20.7302 -3.91344
LeftHand  -0.25398 0.0180481 5.50724
RightShoulder  7.0798 11.5101 40.9583
RightArm  15.1323 -22.5995 34.0516
RightForeArm  -10.734 18.9193 6.89642
RightHand  -0.936683 1.40981 -16.086
LeftUpLeg  3.83655 -2.84273 2.26464
LeftLeg  38.6677 5.04379 4.69374
LeftFoot  -30.7715 -1.08427 -7.39456
LeftToes  1.06248e-005 4.65855e-005 -8.185e-006
492
root  -26.4531 37.2878 -19.6515 -21.5551 -80.7406 11.3805
RightUpLeg  -11.7988 -14.5921 -17.0325
RightLeg  -8.57945 -23.1557 6.71529
RightFoot  5.00471 -1.10513 7.89171
RightToes  0.00048216 0.542163 -0.142577
Spine  33.3577 -1.36455 -0.0732241
Spine1  11.6922 -1.34247 -0.630393
HEad  -28.7788 2.72996 -6.80374
LeftShoulder1  11.2185 -15.9834 -50.2602
LeftArm  -11.9893 4.62651 -22.0461
LeftForeArm  18.5724 -22.4901 -3.93539
LeftHand  -0.25398 0.0180481 5.50724
RightShoulder  7.12471 11.4052 41.5524
RightArm  8.27161 -22.8093 34.9085
RightForeArm  -5.52204 17.8469 6.79211
RightHand  -0.642415 -0.118123 -14.1653
LeftUpLeg  2.94727 -1.88821 1.1972
LeftLeg  40.0487 4.61345 4.53781
LeftFoot  -30.1795 -0.890708 -6.46388
LeftToes  1.06248e-005 4.65855e-005 -8.185e-006
493
root  -25.5129 37.4506 -19.0764 -22.8315 -81.2081 11.9984
RightUpLeg  -11.4775 -14.5018 -17.1133
RightLeg  -7.27037 -21.9622 5.86793
RightFoot  0.341862 -0.891912 8.68032
RightToes  0.00048216 0.542163 -0.142577
Spine  31.7351 -1.08238 -0.113017
Spine1  11.5689 -0.72102 -1.72354
HEad  -25.3768 4.56412 -8.37291
LeftShoulder1  11.0235 -15.8127 -49.8262
LeftArm  -12.8117 5.0698 -21.9228
LeftForeArm  19.1658 -24.3042 -4.1809
LeftHand  -0.25398 0.0180481 5.50724
RightShoulder  7.11078 11.3478 41.6379
RightArm  3.18516 -22.4414 35.6777
RightForeArm  -0.839435 16.756 6.67797
RightHand  -0.506713 -0.957815 -13.1636
LeftUpLeg  2.10528 -1.18095 0.094625
LeftLeg  40.2069 4.68398 4.62331
LeftFoot  -29.0367 -0.730412 -5.80324
LeftToes  1.06248e-005 4.65855e-005 -8.185e-006
494
root  -24.6276 37.7963 -18.5332 -23.3322 -82.1159 12.2388
RightUpLeg  -11.7395 -14.9772 -16.7301
RightLeg  -3.71779 -21.2253 5.22898
RightFoot  -0.416554 -0.798784 8.31384
RightToes  0.00048216 0.542163 -0.142577
Spine  29.9543 -0.829391 0.401989
Spine1  11.4128 -0.0183434 -2.74403
HEad  -21.3302 7.3283 -10.9814
LeftShoulder1  10.8587 -15.6543 -49.488
LeftArm  -13.3897 5.88174 -21.6412
LeftForeArm  19.4112 -25.7221 -4.48345
LeftHand  -0.25398 0.0180481 5.50724
RightShoulder  7.07901 11.365 41.3861
RightArm  0.665657 -21.4556 35.9416
RightForeArm  1.59681 16.1263 6.58135
RightHand  -0.45104 -1.36683 -12.8206
LeftUpLeg  1.69539 -0.190058 -0.848839
LeftLeg  38.6993 5.48806 5.08121
LeftFoot  -27.1016 -0.410066 -4.12584
LeftToes  1.06248e-005 4.65855e-005 -8.185e-006
495
root  -23.8326 38.2435 -18.0655 -21.474 -82.8852 10.076
RightUpLeg  -11.378 -15.2646 -16.169
RightLeg  0.129532 -21.4286 4.76161
RightFoot  0.0907356 -0.776671 7.75438
RightToes  0.00048216 0.542163 -0.142577
Spine  28.2167 -0.677627 1.1263
Spine1  11.3264 0.562186 -3.57662
HEad  -16.9882 11.1865 -13.9043
LeftShoulder1  10.6799 -15.462 -49.1663
LeftArm  -13.5023 6.58346 -21.3683
LeftForeArm  19.2268 -26.4198 -4.6467
LeftHand  -0.25398 0.0180481 5.50724
RightShoulder  7.059 11.3957 41.1679
RightArm  -0.0714989 -19.9081 35.4487
RightForeArm  1.60677 16.1792 6.47167
RightHand  -0.43975 -1.53173 -13.0021
LeftUpLeg  1.94469 0.989754 -1.13712
LeftLeg  35.9918 5.88838 4.95682
LeftFoot  -24.567 -0.129083 -2.39412
LeftToes  1.06248e-005 4.65855e-005 -8.185e-006
